<svg
     xmlns="http://www.w3.org/2000/svg"
     version="1.1"
>
    <defs>
        <symbol id="home" viewBox="0 0 24 24">
            <path d="M9.13478 20.7733V17.7156C9.13478 16.9351 9.77217 16.3023 10.5584 16.3023H13.4326C13.8102 16.3023 14.1723 16.4512 14.4393 16.7163C14.7063 16.9813 14.8563 17.3408 14.8563 17.7156V20.7733C14.8539 21.0978 14.9821 21.4099 15.2124 21.6402C15.4427 21.8705 15.756 22 16.0829 22H18.0438C18.9596 22.0024 19.8388 21.6428 20.4872 21.0008C21.1356 20.3588 21.5 19.487 21.5 18.5778V9.86686C21.5 9.13246 21.1721 8.43584 20.6046 7.96467L13.934 2.67587C12.7737 1.74856 11.1111 1.7785 9.98539 2.74698L3.46701 7.96467C2.87274 8.42195 2.51755 9.12064 2.5 9.86686V18.5689C2.5 20.4639 4.04738 22 5.95617 22H7.87229C8.55123 22 9.103 21.4562 9.10792 20.7822L9.13478 20.7733Z" />
        </symbol>
        <symbol id="news" viewBox="0 0 24 24">
            <path fill-rule="evenodd" clip-rule="evenodd" d="M7.81 2H16.191C19.28 2 21 3.78 21 6.83V17.16C21 20.26 19.28 22 16.191 22H7.81C4.77 22 3 20.26 3 17.16V6.83C3 3.78 4.77 2 7.81 2ZM8.08 6.66V6.65H11.069C11.5 6.65 11.85 7 11.85 7.429C11.85 7.87 11.5 8.22 11.069 8.22H8.08C7.649 8.22 7.3 7.87 7.3 7.44C7.3 7.01 7.649 6.66 8.08 6.66ZM8.08 12.74H15.92C16.35 12.74 16.7 12.39 16.7 11.96C16.7 11.53 16.35 11.179 15.92 11.179H8.08C7.649 11.179 7.3 11.53 7.3 11.96C7.3 12.39 7.649 12.74 8.08 12.74ZM8.08 17.31H15.92C16.319 17.27 16.62 16.929 16.62 16.53C16.62 16.12 16.319 15.78 15.92 15.74H8.08C7.78 15.71 7.49 15.85 7.33 16.11C7.17 16.36 7.17 16.69 7.33 16.95C7.49 17.2 7.78 17.35 8.08 17.31Z" />
        </symbol>
        <symbol id="team" viewBox="0 0 24 24">
            <path fill-rule="evenodd" clip-rule="evenodd" d="M16.1583 8.23285C16.1583 10.5825 14.2851 12.4666 11.949 12.4666C9.61292 12.4666 7.73974 10.5825 7.73974 8.23285C7.73974 5.88227 9.61292 4 11.949 4C14.2851 4 16.1583 5.88227 16.1583 8.23285ZM11.949 20C8.51785 20 5.58809 19.456 5.58809 17.2802C5.58809 15.1034 8.49904 14.5396 11.949 14.5396C15.3802 14.5396 18.31 15.0836 18.31 17.2604C18.31 19.4362 15.399 20 11.949 20ZM17.9571 8.30922C17.9571 9.50703 17.5998 10.6229 16.973 11.5505C16.9086 11.646 16.9659 11.7748 17.0796 11.7946C17.2363 11.8216 17.3984 11.8369 17.5631 11.8414C19.2062 11.8846 20.6809 10.821 21.0883 9.21974C21.6918 6.84123 19.9198 4.7059 17.6634 4.7059C17.4181 4.7059 17.1835 4.73201 16.9551 4.77884C16.9238 4.78605 16.8907 4.80046 16.8728 4.82838C16.8513 4.8626 16.8674 4.90853 16.8889 4.93825C17.5667 5.8938 17.9571 7.05918 17.9571 8.30922ZM20.6782 13.5126C21.7823 13.7296 22.5084 14.1727 22.8093 14.8166C23.0636 15.3453 23.0636 15.9586 22.8093 16.4864C22.349 17.4851 20.8654 17.8058 20.2887 17.8886C20.1696 17.9066 20.0738 17.8031 20.0864 17.6833C20.3809 14.9157 18.0377 13.6035 17.4315 13.3018C17.4055 13.2883 17.4002 13.2676 17.4028 13.255C17.4046 13.246 17.4154 13.2316 17.4351 13.2289C18.7468 13.2046 20.1571 13.3847 20.6782 13.5126ZM6.43711 11.8413C6.60186 11.8368 6.76304 11.8224 6.92063 11.7945C7.03434 11.7747 7.09165 11.6459 7.02718 11.5504C6.4004 10.6228 6.04313 9.50694 6.04313 8.30913C6.04313 7.05909 6.43353 5.89371 7.11135 4.93816C7.13284 4.90844 7.14806 4.86251 7.12746 4.82829C7.10956 4.80127 7.07553 4.78596 7.04509 4.77875C6.81586 4.73192 6.58127 4.70581 6.33593 4.70581C4.07951 4.70581 2.30751 6.84114 2.91191 9.21965C3.31932 10.8209 4.79405 11.8845 6.43711 11.8413ZM6.59694 13.2545C6.59962 13.268 6.59425 13.2878 6.56918 13.3022C5.9621 13.6039 3.61883 14.9161 3.91342 17.6827C3.92595 17.8034 3.83104 17.9061 3.71195 17.889C3.13531 17.8061 1.65163 17.4855 1.19139 16.4867C0.936203 15.9581 0.936203 15.3457 1.19139 14.817C1.49225 14.1731 2.21752 13.73 3.32156 13.512C3.84358 13.385 5.25294 13.2049 6.5656 13.2292C6.5853 13.2319 6.59515 13.2464 6.59694 13.2545Z" />
        </symbol>
        <symbol id="matches" viewBox="0 0 24 24">
            <path fill-rule="evenodd" clip-rule="evenodd" d="M15.164 6.08252C15.4791 6.08684 15.7949 6.09117 16.1119 6.09441C19.5172 6.09441 22 8.52216 22 11.8748V16.1811C22 19.5337 19.5172 21.9615 16.1119 21.9615C14.7478 21.9904 13.3837 22 12.0098 22C10.6359 22 9.25221 21.9904 7.88813 21.9615C4.48283 21.9615 2 19.5337 2 16.1811V11.8748C2 8.52216 4.48283 6.09441 7.89794 6.09441C9.18351 6.07514 10.4985 6.05588 11.8332 6.05588V5.8921C11.8332 5.22736 11.2738 4.68786 10.6065 4.68786H9.63494C8.52601 4.68786 7.62316 3.80154 7.62316 2.72254C7.62316 2.32755 7.95682 2 8.35918 2C8.77134 2 9.09519 2.32755 9.09519 2.72254C9.09519 3.01156 9.34053 3.24277 9.63494 3.24277H10.6065C12.0883 3.25241 13.2954 4.43738 13.3052 5.88247V6.06551C13.9239 6.06551 14.5425 6.074 15.164 6.08252ZM10.8518 14.7457H9.82139V15.7669C9.82139 16.1618 9.48773 16.4894 9.08538 16.4894C8.67321 16.4894 8.34936 16.1618 8.34936 15.7669V14.7457H7.30913C6.90677 14.7457 6.57311 14.4277 6.57311 14.0231C6.57311 13.6281 6.90677 13.3006 7.30913 13.3006H8.34936V12.289C8.34936 11.894 8.67321 11.5665 9.08538 11.5665C9.48773 11.5665 9.82139 11.894 9.82139 12.289V13.3006H10.8518C11.2542 13.3006 11.5878 13.6281 11.5878 14.0231C11.5878 14.4277 11.2542 14.7457 10.8518 14.7457ZM15.0226 13.1175H15.1207C15.5231 13.1175 15.8567 12.7996 15.8567 12.395C15.8567 12 15.5231 11.6724 15.1207 11.6724H15.0226C14.6104 11.6724 14.2866 12 14.2866 12.395C14.2866 12.7996 14.6104 13.1175 15.0226 13.1175ZM16.7007 16.4316H16.7988C17.2012 16.4316 17.5348 16.1137 17.5348 15.7091C17.5348 15.3141 17.2012 14.9865 16.7988 14.9865H16.7007C16.2875 14.9865 15.9647 15.3141 15.9647 15.7091C15.9647 16.1137 16.2875 16.4316 16.7007 16.4316Z" />
        </symbol>
        <symbol id="streams" viewBox="0 0 24 24">
            <path fill-rule="evenodd" clip-rule="evenodd" d="M2 12.0058C2 6.48625 6.48842 2 12 2C17.5116 2 22 6.48625 22 12.0058C22 17.5137 17.5116 22 12 22C6.48842 22 2 17.5137 2 12.0058ZM15.668 13.0178C15.7741 12.9117 15.9093 12.7477 15.9382 12.7091C16.0927 12.5065 16.1699 12.2557 16.1699 12.0058C16.1699 11.725 16.083 11.4645 15.9189 11.2523C15.9055 11.2388 15.8791 11.2102 15.8448 11.1728C15.7806 11.103 15.6885 11.0026 15.6004 10.9146C14.8089 10.0656 12.7432 8.67631 11.6622 8.25181C11.4981 8.18524 11.083 8.03956 10.861 8.02991C10.6486 8.02991 10.4459 8.07815 10.2529 8.17463C10.0116 8.3097 9.81853 8.52195 9.71236 8.77279C9.64479 8.94645 9.53861 9.46744 9.53861 9.47709C9.43243 10.0463 9.37452 10.9725 9.37452 11.9952C9.37452 12.9706 9.43243 13.8572 9.51931 14.4361C9.52169 14.4385 9.53 14.4799 9.5429 14.5442C9.58211 14.7397 9.6638 15.1471 9.75097 15.314C9.96332 15.7192 10.3784 15.9701 10.8224 15.9701H10.861C11.1506 15.9604 11.7587 15.7096 11.7587 15.7C12.7819 15.2754 14.7992 13.9537 15.61 13.0757L15.668 13.0178Z"/>
        </symbol>
        <symbol id="groups" viewBox="0 0 24 24">
            <path fill-rule="evenodd" clip-rule="evenodd" d="M14.2124 7.76241C14.2124 10.4062 12.0489 12.5248 9.34933 12.5248C6.6507 12.5248 4.48631 10.4062 4.48631 7.76241C4.48631 5.11865 6.6507 3 9.34933 3C12.0489 3 14.2124 5.11865 14.2124 7.76241ZM2 17.9174C2 15.47 5.38553 14.8577 9.34933 14.8577C13.3347 14.8577 16.6987 15.4911 16.6987 17.9404C16.6987 20.3877 13.3131 21 9.34933 21C5.364 21 2 20.3666 2 17.9174ZM16.1734 7.84875C16.1734 9.19506 15.7605 10.4513 15.0364 11.4948C14.9611 11.6021 15.0276 11.7468 15.1587 11.7698C15.3407 11.7995 15.5276 11.8177 15.7184 11.8216C17.6167 11.8704 19.3202 10.6736 19.7908 8.87118C20.4885 6.19676 18.4415 3.79543 15.8339 3.79543C15.5511 3.79543 15.2801 3.82418 15.0159 3.87688C14.9797 3.88454 14.9405 3.90179 14.921 3.93246C14.8955 3.97174 14.9141 4.02253 14.9396 4.05607C15.7233 5.13216 16.1734 6.44206 16.1734 7.84875ZM19.3173 13.7023C20.5932 13.9466 21.4317 14.444 21.7791 15.1694C22.0736 15.7635 22.0736 16.4534 21.7791 17.0475C21.2478 18.1705 19.5335 18.5318 18.8672 18.6247C18.7292 18.6439 18.6186 18.5289 18.6333 18.3928C18.9738 15.2805 16.2664 13.8048 15.5658 13.4656C15.5364 13.4493 15.5296 13.4263 15.5325 13.411C15.5345 13.4014 15.5472 13.3861 15.5697 13.3832C17.0854 13.3545 18.7155 13.5586 19.3173 13.7023Z" />
        </symbol>
        <symbol id="media" viewBox="0 0 24 24">
            <path fill-rule="evenodd" clip-rule="evenodd" d="M7.66618 22H16.3328C19.7231 22 22 19.6219 22 16.0833V7.91672C22 4.37811 19.7231 2 16.3338 2H7.66618C4.2769 2 2 4.37811 2 7.91672V16.0833C2 19.6219 4.2769 22 7.66618 22ZM8.49886 11C7.12021 11 6 9.87827 6 8.5C6 7.12173 7.12021 6 8.49886 6C9.8765 6 10.9977 7.12173 10.9977 8.5C10.9977 9.87827 9.8765 11 8.49886 11ZM19.8208 14.934C20.1557 15.7926 19.9817 16.8246 19.6237 17.6749C19.1994 18.6863 18.3869 19.452 17.3632 19.7864C16.9087 19.935 16.432 20 15.9564 20H7.52864C6.68999 20 5.94788 19.7988 5.3395 19.4241C4.95839 19.1889 4.89102 18.646 5.17358 18.2941C5.6462 17.7059 6.11279 17.1156 6.5834 16.5201C7.48038 15.3808 8.08473 15.0506 8.75645 15.3406C9.02896 15.4603 9.30248 15.6398 9.58404 15.8297C10.3342 16.3395 11.377 17.0402 12.7506 16.2797C13.6906 15.7532 14.2358 14.8501 14.7106 14.0637L14.7185 14.0506C14.7522 13.9954 14.7855 13.9402 14.8187 13.8852C14.9783 13.6212 15.1357 13.3607 15.3138 13.1207C15.5371 12.8204 16.3646 11.8813 17.4366 12.5501C18.1194 12.9711 18.6936 13.5408 19.308 14.1507C19.5423 14.3839 19.7092 14.6491 19.8208 14.934Z" />
        </symbol>
        <symbol id="friends" viewBox="0 0 24 24">
            <path d="M12 6C11.2767 6 10.583 6.28734 10.0715 6.7988C9.56006 7.31026 9.27273 8.00396 9.27273 8.72727C9.27273 9.45059 9.56006 10.1443 10.0715 10.6557C10.583 11.1672 11.2767 11.4545 12 11.4545C12.7233 11.4545 13.417 11.1672 13.9285 10.6557C14.4399 10.1443 14.7273 9.45059 14.7273 8.72727C14.7273 8.00396 14.4399 7.31026 13.9285 6.7988C13.417 6.28734 12.7233 6 12 6ZM6.54545 7.97273C5.94269 7.97273 5.36461 8.21217 4.93839 8.63839C4.51217 9.06461 4.27273 9.64269 4.27273 10.2455C4.27273 10.5439 4.33151 10.8395 4.44573 11.1152C4.55994 11.3909 4.72735 11.6415 4.93839 11.8525C5.14944 12.0636 5.39998 12.231 5.67572 12.3452C5.95146 12.4594 6.247 12.5182 6.54545 12.5182C7.34545 12.5182 8.04545 12.1 8.44545 11.4818C7.83636 10.7091 7.45455 9.77273 7.45455 8.72727C7.45455 8.54545 7.45455 8.36364 7.49091 8.18182C7.2 8.04545 6.88182 7.97273 6.54545 7.97273ZM17.4545 7.97273C17.1182 7.97273 16.8 8.04545 16.5091 8.18182C16.5455 8.36364 16.5455 8.54545 16.5455 8.72727C16.5455 9.77273 16.1636 10.7091 15.5545 11.4818C15.9545 12.1 16.6545 12.5182 17.4545 12.5182C17.753 12.5182 18.0485 12.4594 18.3243 12.3452C18.6 12.231 18.8506 12.0636 19.0616 11.8525C19.2726 11.6415 19.4401 11.3909 19.5543 11.1152C19.6685 10.8395 19.7273 10.5439 19.7273 10.2455C19.7273 9.947 19.6685 9.65146 19.5543 9.37572C19.4401 9.09998 19.2726 8.84944 19.0616 8.63839C18.8506 8.42735 18.6 8.25994 18.3243 8.14573C18.0485 8.03151 17.753 7.97273 17.4545 7.97273ZM12 13.2727C10.1818 13.2727 6.54545 14.1818 6.54545 16V17.8182H17.4545V16C17.4545 14.1818 13.8182 13.2727 12 13.2727ZM5.33636 14.1545C3.81818 14.4182 2 15.1273 2 16.3V17.8182H4.72727V16C4.72727 15.2909 4.99091 14.6636 5.33636 14.1545ZM18.6636 14.1545C19.0091 14.6636 19.2727 15.2909 19.2727 16V17.8182H22V16.3C22 15.1273 20.1818 14.4182 18.6636 14.1545Z"/>
        </symbol>
        <symbol id="message" viewBox="0 0 24 24">
            <path fill-rule="evenodd" clip-rule="evenodd" d="M2 12.015C2 6.74712 6.21 2 12.02 2C17.7 2 22 6.65699 22 11.985C22 18.1642 16.96 22 12 22C10.36 22 8.54 21.5593 7.08 20.698C6.57 20.3876 6.14 20.1572 5.59 20.3375L3.57 20.9384C3.06 21.0986 2.6 20.698 2.75 20.1572L3.42 17.9139C3.53 17.6034 3.51 17.2729 3.35 17.0125C2.49 15.4301 2 13.6975 2 12.015ZM10.7 12.015C10.7 12.7261 11.27 13.2969 11.98 13.307C12.69 13.307 13.26 12.7261 13.26 12.025C13.26 11.314 12.69 10.7431 11.98 10.7431C11.28 10.7331 10.7 11.314 10.7 12.015ZM15.31 12.025C15.31 12.7261 15.88 13.307 16.59 13.307C17.3 13.307 17.87 12.7261 17.87 12.025C17.87 11.314 17.3 10.7431 16.59 10.7431C15.88 10.7431 15.31 11.314 15.31 12.025ZM7.37 13.307C6.67 13.307 6.09 12.7261 6.09 12.025C6.09 11.314 6.66 10.7431 7.37 10.7431C8.08 10.7431 8.65 11.314 8.65 12.025C8.65 12.7261 8.08 13.2969 7.37 13.307Z" />
        </symbol>
        <symbol id="notification" viewBox="0 0 24 24">
            <path fill-rule="evenodd" clip-rule="evenodd" d="M18.7071 8.79633C18.7071 10.0523 19.039 10.7925 19.7695 11.6456C20.3231 12.2741 20.5 13.0808 20.5 13.956C20.5 14.8302 20.2128 15.6601 19.6373 16.3339C18.884 17.1417 17.8215 17.6573 16.7372 17.747C15.1659 17.8809 13.5937 17.9937 12.0005 17.9937C10.4063 17.9937 8.83505 17.9263 7.26375 17.747C6.17846 17.6573 5.11602 17.1417 4.36367 16.3339C3.78822 15.6601 3.5 14.8302 3.5 13.956C3.5 13.0808 3.6779 12.2741 4.23049 11.6456C4.98384 10.7925 5.29392 10.0523 5.29392 8.79633V8.3703C5.29392 6.68834 5.71333 5.58852 6.577 4.51186C7.86106 2.9417 9.91935 2 11.9558 2H12.0452C14.1254 2 16.2502 2.98702 17.5125 4.62466C18.3314 5.67916 18.7071 6.73265 18.7071 8.3703V8.79633ZM9.07367 20.0608C9.07367 19.5573 9.53582 19.3266 9.96318 19.2279C10.4631 19.1222 13.5093 19.1222 14.0092 19.2279C14.4366 19.3266 14.8987 19.5573 14.8987 20.0608C14.8738 20.5402 14.5926 20.9653 14.204 21.2352C13.7001 21.628 13.1088 21.8767 12.4906 21.9664C12.1487 22.0107 11.8128 22.0117 11.4828 21.9664C10.8636 21.8767 10.2723 21.628 9.76938 21.2342C9.37978 20.9653 9.09852 20.5402 9.07367 20.0608Z"/>
        </symbol>
        <symbol id="comments" viewBox="0 0 16 16">
            <path fill-rule="evenodd" clip-rule="evenodd" d="M1.33334 8.00999C1.33334 4.49806 4.14 1.33331 8.01334 1.33331C11.8 1.33331 14.6667 4.43797 14.6667 7.98996C14.6667 12.1095 11.3067 14.6666 8 14.6666C6.90667 14.6666 5.69334 14.3729 4.72 13.7987C4.38 13.5917 4.09334 13.4381 3.72667 13.5583L2.38 13.9589C2.04 14.0657 1.73334 13.7987 1.83334 13.4381L2.28 11.9426C2.35334 11.7356 2.34 11.5153 2.23334 11.3417C1.66 10.2867 1.33334 9.13168 1.33334 8.00999ZM7.13334 8.00998C7.13334 8.48402 7.51334 8.86459 7.98667 8.87127C8.46 8.87127 8.84 8.48402 8.84 8.01665C8.84 7.54261 8.46 7.16204 7.98667 7.16204C7.52 7.15536 7.13334 7.54261 7.13334 8.00998ZM10.2067 8.01665C10.2067 8.48402 10.5867 8.87127 11.06 8.87127C11.5333 8.87127 11.9133 8.48402 11.9133 8.01665C11.9133 7.54261 11.5333 7.16204 11.06 7.16204C10.5867 7.16204 10.2067 7.54261 10.2067 8.01665ZM4.91334 8.87127C4.44667 8.87127 4.06 8.48402 4.06 8.01665C4.06 7.54261 4.44 7.16204 4.91334 7.16204C5.38667 7.16204 5.76667 7.54261 5.76667 8.01665C5.76667 8.48402 5.38667 8.86459 4.91334 8.87127Z"/>
        </symbol>
        <symbol id="views" viewBox="0 0 16 16">
            <path fill-rule="evenodd" clip-rule="evenodd" d="M5.39837 8.00002C5.39837 9.42224 6.5626 10.5794 7.99999 10.5794C9.43089 10.5794 10.5951 9.42224 10.5951 8.00002C10.5951 6.57133 9.43089 5.41416 7.99999 5.41416C6.5626 5.41416 5.39837 6.57133 5.39837 8.00002ZM11.8244 4.03073C12.9626 4.90992 13.9317 6.19638 14.6276 7.80608C14.6797 7.92891 14.6797 8.07113 14.6276 8.18749C13.2358 11.4069 10.7577 13.3334 8 13.3334H7.99349C5.24227 13.3334 2.76422 11.4069 1.37235 8.18749C1.32032 8.07113 1.32032 7.92891 1.37235 7.80608C2.76422 4.58669 5.24227 2.66669 7.99349 2.66669H8C9.37886 2.66669 10.6862 3.14507 11.8244 4.03073ZM8.00077 9.6083C8.89183 9.6083 9.62029 8.88426 9.62029 7.9986C9.62029 7.10648 8.89183 6.38244 8.00077 6.38244C7.92273 6.38244 7.84468 6.38891 7.77313 6.40184C7.74712 7.11295 7.16175 7.68184 6.4398 7.68184H6.40728C6.38777 7.78527 6.37476 7.8887 6.37476 7.9986C6.37476 8.88426 7.10321 9.6083 8.00077 9.6083Z"/>
        </symbol>
        <symbol id="arrow" viewBox="0 0 7 11">
            <path d="M0.776783 2.03492C0.415792 1.69152 0.415792 1.13497 0.76475 0.779734C0.945246 0.602114 1.17387 0.519226 1.41453 0.519226C1.64316 0.519226 1.87179 0.602114 2.04025 0.779734L6.23979 4.88867C6.40825 5.05445 6.50452 5.27944 6.50452 5.51627C6.50452 5.75309 6.40825 5.97808 6.23979 6.14386L2.04025 10.2528C1.6913 10.608 1.12574 10.608 0.76475 10.2528C0.415792 9.9094 0.415792 9.34101 0.776783 8.99762L4.32653 5.51627L0.776783 2.03492Z"/>
        </symbol>
    </defs>
</svg>