<svg width="260" height="50" viewBox="0 0 260 50" fill="none" xmlns="http://www.w3.org/2000/svg">
    <path d="M79.832 24H75.272L73.952 20.664H67.376L66.128 24H61.664L68.792 7.008H72.776L79.832 24ZM72.824 17.376L70.712 11.544L68.552 17.376H72.824ZM98.5265 15.432C98.5265 18.104 97.6545 20.28 95.9105 21.96C94.1665 23.624 91.9505 24.456 89.2625 24.456C86.5905 24.456 84.3825 23.624 82.6385 21.96C80.8945 20.28 80.0225 18.104 80.0225 15.432C80.0225 12.744 80.8865 10.592 82.6145 8.976C84.3585 7.36 86.5745 6.552 89.2625 6.552C91.9665 6.552 94.1825 7.36 95.9105 8.976C97.6545 10.592 98.5265 12.744 98.5265 15.432ZM94.1345 15.432C94.1345 13.928 93.6785 12.688 92.7665 11.712C91.8545 10.736 90.6865 10.248 89.2625 10.248C87.8385 10.248 86.6705 10.736 85.7585 11.712C84.8625 12.688 84.4145 13.928 84.4145 15.432C84.4145 16.968 84.8625 18.232 85.7585 19.224C86.6705 20.216 87.8385 20.712 89.2625 20.712C90.6865 20.712 91.8545 20.216 92.7665 19.224C93.6785 18.232 94.1345 16.968 94.1345 15.432ZM117.093 15.456C117.093 16.896 116.821 18.176 116.277 19.296C115.733 20.416 114.997 21.312 114.069 21.984C113.157 22.656 112.149 23.16 111.045 23.496C109.941 23.832 108.781 24 107.565 24H101.229V7.008H107.373C108.381 7.008 109.333 7.096 110.229 7.272C111.141 7.432 112.021 7.72 112.869 8.136C113.717 8.552 114.445 9.072 115.053 9.696C115.677 10.32 116.173 11.128 116.541 12.12C116.909 13.096 117.093 14.208 117.093 15.456ZM112.821 15.456C112.821 14.544 112.669 13.76 112.365 13.104C112.061 12.432 111.637 11.912 111.093 11.544C110.565 11.176 109.981 10.912 109.341 10.752C108.717 10.592 108.029 10.512 107.277 10.512H105.237V20.448H107.181C108.829 20.448 110.181 20.056 111.237 19.272C112.293 18.488 112.821 17.216 112.821 15.456Z" fill="#EEEEF0"/>
    <path d="M132.391 24H118.999V20.448L127.087 10.488H119.191V7.008H132.223V10.296L123.943 20.448H132.391V24ZM152.175 15.432C152.175 18.104 151.303 20.28 149.559 21.96C147.815 23.624 145.599 24.456 142.911 24.456C140.239 24.456 138.031 23.624 136.287 21.96C134.543 20.28 133.671 18.104 133.671 15.432C133.671 12.744 134.535 10.592 136.263 8.976C138.007 7.36 140.223 6.552 142.911 6.552C145.615 6.552 147.831 7.36 149.559 8.976C151.303 10.592 152.175 12.744 152.175 15.432ZM147.783 15.432C147.783 13.928 147.327 12.688 146.415 11.712C145.503 10.736 144.335 10.248 142.911 10.248C141.487 10.248 140.319 10.736 139.407 11.712C138.511 12.688 138.063 13.928 138.063 15.432C138.063 16.968 138.511 18.232 139.407 19.224C140.319 20.216 141.487 20.712 142.911 20.712C144.335 20.712 145.503 20.216 146.415 19.224C147.327 18.232 147.783 16.968 147.783 15.432ZM170.333 24H165.677L158.837 12.888H158.765L158.861 24H154.877V7.008H159.557L166.373 18.096H166.445L166.349 7.008H170.333V24ZM185.694 24H173.838V7.008H185.262V10.488H177.798V13.68H184.854V16.968H177.798V20.496H185.694V24Z" fill="white"/>
    <path d="M132.391 24H118.999V20.448L127.087 10.488H119.191V7.008H132.223V10.296L123.943 20.448H132.391V24ZM152.175 15.432C152.175 18.104 151.303 20.28 149.559 21.96C147.815 23.624 145.599 24.456 142.911 24.456C140.239 24.456 138.031 23.624 136.287 21.96C134.543 20.28 133.671 18.104 133.671 15.432C133.671 12.744 134.535 10.592 136.263 8.976C138.007 7.36 140.223 6.552 142.911 6.552C145.615 6.552 147.831 7.36 149.559 8.976C151.303 10.592 152.175 12.744 152.175 15.432ZM147.783 15.432C147.783 13.928 147.327 12.688 146.415 11.712C145.503 10.736 144.335 10.248 142.911 10.248C141.487 10.248 140.319 10.736 139.407 11.712C138.511 12.688 138.063 13.928 138.063 15.432C138.063 16.968 138.511 18.232 139.407 19.224C140.319 20.216 141.487 20.712 142.911 20.712C144.335 20.712 145.503 20.216 146.415 19.224C147.327 18.232 147.783 16.968 147.783 15.432ZM170.333 24H165.677L158.837 12.888H158.765L158.861 24H154.877V7.008H159.557L166.373 18.096H166.445L166.349 7.008H170.333V24ZM185.694 24H173.838V7.008H185.262V10.488H177.798V13.68H184.854V16.968H177.798V20.496H185.694V24Z" fill="url(#paint0_linear_772_451)"/>
    <path d="M71.824 40.376L73.088 41.24C72.0853 42.6053 70.6453 43.288 68.768 43.288C67.0293 43.288 65.6 42.728 64.48 41.608C63.36 40.488 62.8 39.0587 62.8 37.32C62.8 35.5707 63.3707 34.1467 64.512 33.048C65.6533 31.9387 67.0933 31.384 68.832 31.384C69.6427 31.384 70.4213 31.5387 71.168 31.848C71.9147 32.1573 72.4907 32.5893 72.896 33.144L71.648 34.104C71.3707 33.7093 70.976 33.3893 70.464 33.144C69.952 32.8987 69.408 32.776 68.832 32.776C67.552 32.776 66.512 33.2133 65.712 34.088C64.9227 34.9627 64.528 36.04 64.528 37.32C64.528 38.6213 64.9173 39.7093 65.696 40.584C66.4747 41.448 67.504 41.88 68.784 41.88C70.1173 41.88 71.1307 41.3787 71.824 40.376ZM88.9006 37.32C88.9006 39.0587 88.33 40.488 87.1886 41.608C86.058 42.728 84.6233 43.288 82.8846 43.288C81.1566 43.288 79.7273 42.728 78.5966 41.608C77.466 40.488 76.9006 39.0587 76.9006 37.32C76.9006 35.5707 77.4606 34.1467 78.5806 33.048C79.7113 31.9387 81.146 31.384 82.8846 31.384C84.6233 31.384 86.058 31.9387 87.1886 33.048C88.33 34.1467 88.9006 35.5707 88.9006 37.32ZM87.1886 37.32C87.1886 36.04 86.794 34.9627 86.0046 34.088C85.2153 33.2133 84.1753 32.776 82.8846 32.776C81.6153 32.776 80.586 33.2133 79.7966 34.088C79.0073 34.9627 78.6126 36.04 78.6126 37.32C78.6126 38.6107 79.0073 39.6933 79.7966 40.568C80.586 41.432 81.6153 41.864 82.8846 41.864C84.1753 41.864 85.2153 41.432 86.0046 40.568C86.794 39.6933 87.1886 38.6107 87.1886 37.32ZM96.4788 31.672L99.8708 40.376H99.9028L103.247 31.672H105.711V43H104.127V33.528H104.095L100.335 43H99.3268L95.5828 33.528H95.5508V43H94.0148V31.672H96.4788ZM113.892 31.672L117.284 40.376H117.316L120.66 31.672H123.124V43H121.54V33.528H121.508L117.748 43H116.74L112.996 33.528H112.964V43H111.428V31.672H113.892ZM136.425 41.992C135.668 42.856 134.58 43.288 133.161 43.288C131.742 43.288 130.654 42.856 129.897 41.992C129.14 41.1173 128.761 40.056 128.761 38.808V31.672H130.345V38.712C130.345 39.5973 130.569 40.344 131.017 40.952C131.476 41.56 132.19 41.864 133.161 41.864C134.132 41.864 134.841 41.56 135.289 40.952C135.748 40.344 135.977 39.5973 135.977 38.712V31.672H137.561V38.808C137.561 40.056 137.182 41.1173 136.425 41.992ZM145.256 31.672L151.176 40.728H151.208V31.672H152.792V43H150.792L144.808 33.752H144.776V43H143.192V31.672H145.256ZM160.095 31.672V43H158.511V31.672H160.095ZM169.783 33.064V43H168.199V33.064H164.567V31.672H173.415V33.064H169.783ZM182.113 38.104V43H180.513V38.104L176.273 31.672H178.225L181.361 36.792L184.513 31.672H186.353L182.113 38.104Z" fill="#9797B0"/>
    <path fill-rule="evenodd" clip-rule="evenodd" d="M35.5314 15.4894L16.7371 4.38574L23.7285 16.8093H17.5419V21.8391L3.50879 9.61671L17.1568 34.4853C18.4395 42.2907 25.2172 48.2454 33.3857 48.2454C42.4693 48.2454 49.8331 40.8817 49.8331 31.7981C49.8331 23.4416 43.6012 16.5408 35.5314 15.4894Z" fill="#1C1A37"/>
    <path fill-rule="evenodd" clip-rule="evenodd" d="M33.4155 13.9682L14.5263 0L20.4526 15.4201L15.416 13.6614L13.6579 20.9528L0 5.75439L13.235 34.8637C14.6438 43.4496 22.0876 49.9998 31.0589 49.9998C41.0353 49.9998 49.1228 41.8997 49.1228 31.9077C49.1228 22.7157 42.2784 15.1247 33.4155 13.9682ZM8.5908 20.3714L16.0067 33.9054L16.0869 34.3943C17.27 41.6041 23.5258 47.1051 31.0589 47.1051C39.4391 47.1051 46.2326 40.301 46.2326 31.9077C46.2326 24.1887 40.4841 17.8098 33.0421 16.8387L32.4551 16.7621L20.5724 9.73081L25.3955 18.3148H16.5481V27.3128L8.5908 20.3714Z" fill="#1C1A37"/>
    <path fill-rule="evenodd" clip-rule="evenodd" d="M35.1699 12.214L14.5284 0L22.207 13.6659H15.4123V19.1986L0 5.75406L14.9894 33.1095C16.3982 41.6954 23.842 48.2456 32.8133 48.2456C42.7897 48.2456 50.8772 40.1455 50.8772 30.1535C50.8772 20.9615 44.0328 13.3705 35.1699 12.214ZM10.3452 18.6172L17.7611 32.1512L17.8413 32.6401C19.0244 39.85 25.2802 45.3509 32.8133 45.3509C41.1935 45.3509 47.987 38.5468 47.987 30.1535C47.987 22.4345 42.2385 16.0556 34.7965 15.0845L34.2094 15.0079L22.3268 7.97662L27.1499 16.5606H18.3025V25.5586L10.3452 18.6172Z" fill="#23EAA4"/>
    <path fill-rule="evenodd" clip-rule="evenodd" d="M35.1699 12.214L14.5284 0L22.207 13.6659H15.4123V19.1986L0 5.75406L14.9894 33.1095C16.3982 41.6954 23.842 48.2456 32.8133 48.2456C42.7897 48.2456 50.8772 40.1455 50.8772 30.1535C50.8772 20.9615 44.0328 13.3705 35.1699 12.214ZM10.3452 18.6172L17.7611 32.1512L17.8413 32.6401C19.0244 39.85 25.2802 45.3509 32.8133 45.3509C41.1935 45.3509 47.987 38.5468 47.987 30.1535C47.987 22.4345 42.2385 16.0556 34.7965 15.0845L34.2094 15.0079L22.3268 7.97662L27.1499 16.5606H18.3025V25.5586L10.3452 18.6172Z" fill="url(#paint1_linear_772_451)"/>
    <path fill-rule="evenodd" clip-rule="evenodd" d="M33.8913 33.9768L23.4045 27.1021L23.546 28.0675L23.5462 28.0685L23.5465 28.0709L23.5478 28.0791L23.5524 28.109C23.5565 28.1348 23.5626 28.172 23.5708 28.2195C23.5871 28.3143 23.6118 28.4501 23.6458 28.6168C23.7136 28.9497 23.819 29.4084 23.9693 29.9113C24.2631 30.8946 24.7527 32.1335 25.5316 32.8881C26.0928 33.4317 26.844 33.7659 27.6174 33.972C28.3944 34.179 29.2261 34.2653 29.9809 34.2907C30.7375 34.3162 31.4294 34.281 31.9315 34.2396C32.183 34.2188 32.3879 34.1965 32.5307 34.1792C32.6022 34.1705 32.6581 34.1631 32.6967 34.1578L32.7414 34.1515L32.7535 34.1498L32.7569 34.1492L32.7585 34.149L33.8913 33.9768ZM32.6926 33.7154C32.7585 34.149 32.7587 34.149 32.7585 34.149L32.6926 33.7154ZM23.98 28.0037L23.546 28.0675C23.546 28.0674 23.546 28.0673 23.98 28.0037ZM43.1267 30.6218L43.2274 29.7032L36.3217 34.1814L37.2996 34.4265L37.3006 34.4267L37.3029 34.4273L37.3104 34.4291L37.337 34.4355C37.3599 34.4408 37.3926 34.4484 37.4342 34.4575C37.5174 34.4756 37.6363 34.5002 37.7823 34.5262C38.0735 34.5783 38.4767 34.6373 38.9219 34.6643C39.3653 34.6912 39.8629 34.6871 40.339 34.6069C40.8114 34.5273 41.2953 34.3673 41.6804 34.0569C42.3124 33.5477 42.6628 32.6408 42.8572 31.9519C42.9585 31.593 43.0255 31.2629 43.0672 31.0229C43.0881 30.9026 43.1028 30.804 43.1123 30.7348C43.1171 30.7002 43.1206 30.6728 43.123 30.6537L43.1256 30.6312L43.1264 30.6248L43.1267 30.6218ZM37.406 34.001L37.2996 34.4265C37.2995 34.4264 37.2994 34.4264 37.406 34.001L37.406 34.001Z" fill="#23EAA4"/>
    <path fill-rule="evenodd" clip-rule="evenodd" d="M33.8913 33.9768L23.4045 27.1021L23.546 28.0675L23.5462 28.0685L23.5465 28.0709L23.5478 28.0791L23.5524 28.109C23.5565 28.1348 23.5626 28.172 23.5708 28.2195C23.5871 28.3143 23.6118 28.4501 23.6458 28.6168C23.7136 28.9497 23.819 29.4084 23.9693 29.9113C24.2631 30.8946 24.7527 32.1335 25.5316 32.8881C26.0928 33.4317 26.844 33.7659 27.6174 33.972C28.3944 34.179 29.2261 34.2653 29.9809 34.2907C30.7375 34.3162 31.4294 34.281 31.9315 34.2396C32.183 34.2188 32.3879 34.1965 32.5307 34.1792C32.6022 34.1705 32.6581 34.1631 32.6967 34.1578L32.7414 34.1515L32.7535 34.1498L32.7569 34.1492L32.7585 34.149L33.8913 33.9768ZM32.6926 33.7154C32.7585 34.149 32.7587 34.149 32.7585 34.149L32.6926 33.7154ZM23.98 28.0037L23.546 28.0675C23.546 28.0674 23.546 28.0673 23.98 28.0037ZM43.1267 30.6218L43.2274 29.7032L36.3217 34.1814L37.2996 34.4265L37.3006 34.4267L37.3029 34.4273L37.3104 34.4291L37.337 34.4355C37.3599 34.4408 37.3926 34.4484 37.4342 34.4575C37.5174 34.4756 37.6363 34.5002 37.7823 34.5262C38.0735 34.5783 38.4767 34.6373 38.9219 34.6643C39.3653 34.6912 39.8629 34.6871 40.339 34.6069C40.8114 34.5273 41.2953 34.3673 41.6804 34.0569C42.3124 33.5477 42.6628 32.6408 42.8572 31.9519C42.9585 31.593 43.0255 31.2629 43.0672 31.0229C43.0881 30.9026 43.1028 30.804 43.1123 30.7348C43.1171 30.7002 43.1206 30.6728 43.123 30.6537L43.1256 30.6312L43.1264 30.6248L43.1267 30.6218ZM37.406 34.001L37.2996 34.4265C37.2995 34.4264 37.2994 34.4264 37.406 34.001L37.406 34.001Z" fill="url(#paint2_linear_772_451)"/>
    <defs>
        <linearGradient id="paint0_linear_772_451" x1="67.3879" y1="4.30909" x2="68.6934" y2="73.1298" gradientUnits="userSpaceOnUse">
            <stop stop-color="#23EAA4"/>
            <stop offset="0.0001" stop-color="#23EAA4"/>
            <stop offset="0.828125" stop-color="#1E8169"/>
        </linearGradient>
        <linearGradient id="paint1_linear_772_451" x1="2.19298" y1="2.63158" x2="42.9825" y2="42.9825" gradientUnits="userSpaceOnUse">
            <stop stop-color="#23EAA4"/>
            <stop offset="0.583333" stop-color="#10B379"/>
            <stop offset="0.828125" stop-color="#1E8169"/>
        </linearGradient>
        <linearGradient id="paint2_linear_772_451" x1="14.4737" y1="18.4209" x2="18.5746" y2="51.6283" gradientUnits="userSpaceOnUse">
            <stop stop-color="#23EAA4"/>
            <stop offset="0.666667" stop-color="#23EAA4"/>
        </linearGradient>
    </defs>
</svg>
