<svg width="1040" height="436" viewBox="0 0 1040 436" fill="none" xmlns="http://www.w3.org/2000/svg">
<path d="M611.828 268H593.588L588.308 254.656H562.004L557.012 268H539.156L567.668 200.032H583.604L611.828 268ZM583.796 241.504L575.348 218.176L566.708 241.504H583.796ZM686.606 233.728C686.606 244.416 683.118 253.12 676.142 259.84C669.166 266.496 660.302 269.824 649.55 269.824C638.862 269.824 630.03 266.496 623.054 259.84C616.078 253.12 612.59 244.416 612.59 233.728C612.59 222.976 616.046 214.368 622.958 207.904C629.934 201.44 638.798 198.208 649.55 198.208C660.366 198.208 669.23 201.44 676.142 207.904C683.118 214.368 686.606 222.976 686.606 233.728ZM669.038 233.728C669.038 227.712 667.214 222.752 663.566 218.848C659.918 214.944 655.246 212.992 649.55 212.992C643.854 212.992 639.182 214.944 635.534 218.848C631.95 222.752 630.158 227.712 630.158 233.728C630.158 239.872 631.95 244.928 635.534 248.896C639.182 252.864 643.854 254.848 649.55 254.848C655.246 254.848 659.918 252.864 663.566 248.896C667.214 244.928 669.038 239.872 669.038 233.728ZM760.87 233.824C760.87 239.584 759.782 244.704 757.606 249.184C755.43 253.664 752.486 257.248 748.774 259.936C745.126 262.624 741.094 264.64 736.678 265.984C732.262 267.328 727.622 268 722.758 268H697.414V200.032H721.99C726.022 200.032 729.83 200.384 733.414 201.088C737.062 201.728 740.582 202.88 743.974 204.544C747.366 206.208 750.278 208.288 752.71 210.784C755.206 213.28 757.19 216.512 758.662 220.48C760.134 224.384 760.87 228.832 760.87 233.824ZM743.782 233.824C743.782 230.176 743.174 227.04 741.958 224.416C740.742 221.728 739.046 219.648 736.87 218.176C734.758 216.704 732.422 215.648 729.862 215.008C727.366 214.368 724.614 214.048 721.606 214.048H713.446V253.792H721.222C727.814 253.792 733.222 252.224 737.446 249.088C741.67 245.952 743.782 240.864 743.782 233.824Z" fill="white"/>
<path d="M822.062 268H768.494V253.792L800.846 213.952H769.262V200.032H821.39V213.184L788.27 253.792H822.062V268ZM901.2 233.728C901.2 244.416 897.712 253.12 890.736 259.84C883.76 266.496 874.896 269.824 864.144 269.824C853.456 269.824 844.624 266.496 837.648 259.84C830.672 253.12 827.184 244.416 827.184 233.728C827.184 222.976 830.64 214.368 837.552 207.904C844.528 201.44 853.392 198.208 864.144 198.208C874.96 198.208 883.824 201.44 890.736 207.904C897.712 214.368 901.2 222.976 901.2 233.728ZM883.632 233.728C883.632 227.712 881.808 222.752 878.16 218.848C874.512 214.944 869.84 212.992 864.144 212.992C858.448 212.992 853.776 214.944 850.128 218.848C846.544 222.752 844.752 227.712 844.752 233.728C844.752 239.872 846.544 244.928 850.128 248.896C853.776 252.864 858.448 254.848 864.144 254.848C869.84 254.848 874.512 252.864 878.16 248.896C881.808 244.928 883.632 239.872 883.632 233.728ZM973.832 268H955.208L927.848 223.552H927.56L927.944 268H912.008V200.032H930.728L957.992 244.384H958.28L957.896 200.032H973.832V268ZM1035.28 268H987.852V200.032H1033.55V213.952H1003.69V226.72H1031.92V239.872H1003.69V253.984H1035.28V268Z" fill="#00FBA4"/>
<path d="M579.796 344.504L584.852 347.96C580.841 353.421 575.081 356.152 567.572 356.152C560.617 356.152 554.9 353.912 550.42 349.432C545.94 344.952 543.7 339.235 543.7 332.28C543.7 325.283 545.983 319.587 550.548 315.192C555.113 310.755 560.873 308.536 567.828 308.536C571.071 308.536 574.185 309.155 577.172 310.392C580.159 311.629 582.463 313.357 584.084 315.576L579.092 319.416C577.983 317.837 576.404 316.557 574.356 315.576C572.308 314.595 570.132 314.104 567.828 314.104C562.708 314.104 558.548 315.853 555.348 319.352C552.191 322.851 550.612 327.16 550.612 332.28C550.612 337.485 552.169 341.837 555.284 345.336C558.399 348.792 562.516 350.52 567.636 350.52C572.969 350.52 577.023 348.515 579.796 344.504ZM648.103 332.28C648.103 339.235 645.82 344.952 641.255 349.432C636.732 353.912 630.993 356.152 624.039 356.152C617.127 356.152 611.409 353.912 606.887 349.432C602.364 344.952 600.103 339.235 600.103 332.28C600.103 325.283 602.343 319.587 606.823 315.192C611.345 310.755 617.084 308.536 624.039 308.536C630.993 308.536 636.732 310.755 641.255 315.192C645.82 319.587 648.103 325.283 648.103 332.28ZM641.255 332.28C641.255 327.16 639.676 322.851 636.519 319.352C633.361 315.853 629.201 314.104 624.039 314.104C618.961 314.104 614.844 315.853 611.687 319.352C608.529 322.851 606.951 327.16 606.951 332.28C606.951 337.443 608.529 341.773 611.687 345.272C614.844 348.728 618.961 350.456 624.039 350.456C629.201 350.456 633.361 348.728 636.519 345.272C639.676 341.773 641.255 337.443 641.255 332.28ZM678.415 309.688L691.983 344.504H692.111L705.487 309.688H715.343V355H709.007V317.112H708.879L693.839 355H689.807L674.831 317.112H674.703V355H668.559V309.688H678.415ZM748.068 309.688L761.636 344.504H761.764L775.14 309.688H784.996V355H778.66V317.112H778.532L763.492 355H759.46L744.484 317.112H744.356V355H738.212V309.688H748.068ZM838.2 350.968C835.171 354.424 830.819 356.152 825.144 356.152C819.469 356.152 815.117 354.424 812.088 350.968C809.059 347.469 807.544 343.224 807.544 338.232V309.688H813.88V337.848C813.88 341.389 814.776 344.376 816.568 346.808C818.403 349.24 821.261 350.456 825.144 350.456C829.027 350.456 831.864 349.24 833.656 346.808C835.491 344.376 836.408 341.389 836.408 337.848V309.688H842.744V338.232C842.744 343.224 841.229 347.469 838.2 350.968ZM873.523 309.688L897.203 345.912H897.331V309.688H903.667V355H895.667L871.731 318.008H871.603V355H865.267V309.688H873.523ZM932.88 309.688V355H926.544V309.688H932.88ZM971.631 315.256V355H965.295V315.256H950.767V309.688H986.159V315.256H971.631ZM1020.95 335.416V355H1014.55V335.416L997.591 309.688H1005.4L1017.94 330.168L1030.55 309.688H1037.91L1020.95 335.416Z" fill="white"/>
<mask id="path-3-inside-1_761_434" fill="white">
<path fill-rule="evenodd" clip-rule="evenodd" d="M318.329 110.379L131.5 0L201 123.5H139.5V173.5L0 52L135.672 299.214C148.423 376.805 215.799 436 297 436C387.299 436 460.5 362.799 460.5 272.5C460.5 189.43 398.55 120.83 318.329 110.379Z"/>
</mask>
<path fill-rule="evenodd" clip-rule="evenodd" d="M318.329 110.379L131.5 0L201 123.5H139.5V173.5L0 52L135.672 299.214C148.423 376.805 215.799 436 297 436C387.299 436 460.5 362.799 460.5 272.5C460.5 189.43 398.55 120.83 318.329 110.379Z" fill="#1C1A37"/>
<path d="M131.5 0L141.673 -17.2194L77.5366 -55.1112L114.07 9.80857L131.5 0ZM318.329 110.379L308.156 127.598L311.683 129.682L315.746 130.211L318.329 110.379ZM201 123.5V143.5H235.204L218.43 113.691L201 123.5ZM139.5 123.5V103.5H119.5V123.5H139.5ZM139.5 173.5L126.364 188.582L159.5 217.442V173.5H139.5ZM0 52L13.1356 36.9184L-17.5332 61.6223L0 52ZM135.672 299.214L155.407 295.97L154.852 292.592L153.205 289.591L135.672 299.214ZM121.327 17.2194L308.156 127.598L328.503 93.1593L141.673 -17.2194L121.327 17.2194ZM218.43 113.691L148.93 -9.80857L114.07 9.80857L183.57 133.309L218.43 113.691ZM139.5 143.5H201V103.5H139.5V143.5ZM159.5 173.5V123.5H119.5V173.5H159.5ZM-13.1356 67.0816L126.364 188.582L152.636 158.418L13.1356 36.9184L-13.1356 67.0816ZM153.205 289.591L17.5332 42.3777L-17.5332 61.6223L118.138 308.836L153.205 289.591ZM297 416C225.751 416 166.596 364.055 155.407 295.97L115.936 302.457C130.25 389.555 205.846 456 297 456V416ZM440.5 272.5C440.5 351.753 376.253 416 297 416V456C398.344 456 480.5 373.844 480.5 272.5H440.5ZM315.746 130.211C386.133 139.381 440.5 199.608 440.5 272.5H480.5C480.5 179.253 410.967 102.279 320.913 90.5463L315.746 130.211Z" fill="#23EAA4" mask="url(#path-3-inside-1_761_434)"/>
<path d="M290.111 300.279L203.5 243.5C203.5 243.5 208.204 275.599 221.958 288.923C241.335 307.695 290.111 300.279 290.111 300.279Z" fill="#23EAA4"/>
<path d="M389.5 269.05L336.966 303.117C336.966 303.117 364.602 310.043 376.721 300.279C386.983 292.01 389.5 269.05 389.5 269.05Z" fill="#23EAA4"/>
<path d="M290.111 300.279L203.5 243.5C203.5 243.5 208.204 275.599 221.958 288.923C241.335 307.695 290.111 300.279 290.111 300.279Z" stroke="#23EAA4" stroke-width="10"/>
<path d="M389.5 269.05L336.966 303.117C336.966 303.117 364.602 310.043 376.721 300.279C386.983 292.01 389.5 269.05 389.5 269.05Z" stroke="#23EAA4" stroke-width="10"/>
</svg>
