<svg width="32" height="32" viewBox="0 0 32 32" fill="none" xmlns="http://www.w3.org/2000/svg">
    <path fill-rule="evenodd" clip-rule="evenodd" d="M1.33334 8.00999C1.33334 4.49806 4.14 1.33331 8.01334 1.33331C11.8 1.33331 14.6667 4.43797 14.6667 7.98996C14.6667 12.1095 11.3067 14.6666 8 14.6666C6.90667 14.6666 5.69334 14.3729 4.72 13.7987C4.38 13.5917 4.09334 13.4381 3.72667 13.5583L2.38 13.9589C2.04 14.0657 1.73334 13.7987 1.83334 13.4381L2.28 11.9426C2.35334 11.7356 2.34 11.5153 2.23334 11.3417C1.66 10.2867 1.33334 9.13168 1.33334 8.00999ZM7.13334 8.00998C7.13334 8.48402 7.51334 8.86459 7.98667 8.87127C8.46 8.87127 8.84 8.48402 8.84 8.01665C8.84 7.54261 8.46 7.16204 7.98667 7.16204C7.52 7.15536 7.13334 7.54261 7.13334 8.00998ZM10.2067 8.01665C10.2067 8.48402 10.5867 8.87127 11.06 8.87127C11.5333 8.87127 11.9133 8.48402 11.9133 8.01665C11.9133 7.54261 11.5333 7.16204 11.06 7.16204C10.5867 7.16204 10.2067 7.54261 10.2067 8.01665ZM4.91334 8.87127C4.44667 8.87127 4.06 8.48402 4.06 8.01665C4.06 7.54261 4.44 7.16204 4.91334 7.16204C5.38667 7.16204 5.76667 7.54261 5.76667 8.01665C5.76667 8.48402 5.38667 8.86459 4.91334 8.87127Z" />
</svg>