<svg width="16" height="16" viewBox="0 0 16 16" fill="none" xmlns="http://www.w3.org/2000/svg">
    <path fill-rule="evenodd" clip-rule="evenodd" d="M5.11325 1.3328H10.8933C13.1533 1.3328 14.6666 2.91947 14.6666 5.27947V10.7268C14.6666 13.0801 13.1533 14.6661 10.8933 14.6661H5.11325C2.85325 14.6661 1.33325 13.0801 1.33325 10.7268V5.27947C1.33325 2.91947 2.85325 1.3328 5.11325 1.3328ZM10.0066 9.99947C10.2333 9.77347 10.2333 9.4068 10.0066 9.18014L8.81992 7.99347L10.0066 6.80614C10.2333 6.58014 10.2333 6.2068 10.0066 5.98013C9.77992 5.7528 9.41325 5.7528 9.17992 5.98013L7.99992 7.16614L6.81325 5.98013C6.57992 5.7528 6.21325 5.7528 5.98659 5.98013C5.75992 6.2068 5.75992 6.58014 5.98659 6.80614L7.17325 7.99347L5.98659 9.17347C5.75992 9.4068 5.75992 9.77347 5.98659 9.99947C6.09992 10.1128 6.25325 10.1735 6.39992 10.1735C6.55325 10.1735 6.69992 10.1128 6.81325 9.99947L7.99992 8.82014L9.18658 9.99947C9.29992 10.1201 9.44658 10.1735 9.59325 10.1735C9.74658 10.1735 9.89325 10.1128 10.0066 9.99947Z" fill="currentColor"/>
</svg>
