<svg width="32" height="32" viewBox="0 0 24 24" fill="none" xmlns="http://www.w3.org/2000/svg">
    <path fill-rule="evenodd" clip-rule="evenodd" d="M12 6C11.2767 6 10.583 6.28734 10.0715 6.7988C9.56006 7.31026 9.27273 8.00396 9.27273 8.72727C9.27273 9.45059 9.56006 10.1443 10.0715 10.6557C10.583 11.1672 11.2767 11.4545 12 11.4545C12.7233 11.4545 13.417 11.1672 13.9285 10.6557C14.4399 10.1443 14.7273 9.45059 14.7273 8.72727C14.7273 8.00396 14.4399 7.31026 13.9285 6.7988C13.417 6.28734 12.7233 6 12 6ZM6.54545 7.97273C5.94269 7.97273 5.36461 8.21217 4.93839 8.63839C4.51217 9.06461 4.27273 9.64269 4.27273 10.2455C4.27273 10.5439 4.33151 10.8395 4.44573 11.1152C4.55994 11.3909 4.72735 11.6415 4.93839 11.8525C5.14944 12.0636 5.39998 12.231 5.67572 12.3452C5.95146 12.4594 6.247 12.5182 6.54545 12.5182C7.34545 12.5182 8.04545 12.1 8.44545 11.4818C7.83636 10.7091 7.45455 9.77273 7.45455 8.72727C7.45455 8.54545 7.45455 8.36364 7.49091 8.18182C7.2 8.04545 6.88182 7.97273 6.54545 7.97273ZM17.4545 7.97273C17.1182 7.97273 16.8 8.04545 16.5091 8.18182C16.5455 8.36364 16.5455 8.54545 16.5455 8.72727C16.5455 9.77273 16.1636 10.7091 15.5545 11.4818C15.9545 12.1 16.6545 12.5182 17.4545 12.5182C17.753 12.5182 18.0485 12.4594 18.3243 12.3452C18.6 12.231 18.8506 12.0636 19.0616 11.8525C19.2726 11.6415 19.4401 11.3909 19.5543 11.1152C19.6685 10.8395 19.7273 10.5439 19.7273 10.2455C19.7273 9.947 19.6685 9.65146 19.5543 9.37572C19.4401 9.09998 19.2726 8.84944 19.0616 8.63839C18.8506 8.42735 18.6 8.25994 18.3243 8.14573C18.0485 8.03151 17.753 7.97273 17.4545 7.97273ZM12 13.2727C10.1818 13.2727 6.54545 14.1818 6.54545 16V17.8182H17.4545V16C17.4545 14.1818 13.8182 13.2727 12 13.2727ZM5.33636 14.1545C3.81818 14.4182 2 15.1273 2 16.3V17.8182H4.72727V16C4.72727 15.2909 4.99091 14.6636 5.33636 14.1545ZM18.6636 14.1545C19.0091 14.6636 19.2727 15.2909 19.2727 16V17.8182H22V16.3C22 15.1273 20.1818 14.4182 18.6636 14.1545Z" fill="currentColor"/>
</svg>