<svg width="24" height="24" viewBox="0 0 24 24" fill="none" xmlns="http://www.w3.org/2000/svg">
    <path fill-rule="evenodd" clip-rule="evenodd" d="M7 2C4.23858 2 2 4.23858 2 7V17C2 19.7614 4.23858 22 7 22H17C19.7614 22 22 19.7614 22 17V7C22 4.23858 19.7614 2 17 2H7ZM6.37336 12.2351C6.49268 12.1694 6.57023 12.0319 6.61199 11.9065C7.14892 10.299 7.61425 9.89864 8.10345 10.0899C8.93269 9.52815 9.83353 9.0979 10.806 8.73936C11.0088 8.66765 11.1937 8.54814 11.3727 8.42863C11.8082 8.1418 12.0707 7.83704 12.2676 7.58606C12.5897 7.17374 13.3653 7.12594 13.6337 7.51435C13.932 7.93863 14.0036 8.4107 14.0156 8.88278C14.0514 9.26522 14.1707 9.39071 14.4093 9.45644C14.8418 9.42656 15.2878 9.40714 15.7337 9.38772C16.1797 9.3683 16.6256 9.34888 17.0581 9.319C17.4757 9.12778 17.6786 8.8529 17.5354 8.42265C17.5056 8.29119 17.4936 8.17168 17.7024 8.1657C18.0723 8.32107 18.1499 8.23143 17.959 7.90875C18.0663 7.28728 18.126 6.70167 17.8098 6.12203C17.7693 6.04897 17.7284 5.97262 17.6865 5.89438C17.3891 5.33911 17.0406 4.6883 16.4078 4.4369C15.8083 4.19865 15.2787 4.34381 14.737 4.49228C14.6265 4.52256 14.5155 4.55298 14.4033 4.58031C13.7411 4.74165 13.9678 4.53251 14.2363 4.32336C14.4824 4.13162 14.4427 4.1257 14.0437 4.06619C14.0075 4.06079 13.9683 4.05494 13.9261 4.04848C13.419 3.97079 12.4704 3.97677 11.7903 4.13811C10.7761 4.41299 9.94092 4.92092 9.23695 5.638C8.935 5.94873 8.59864 6.22212 8.26167 6.49601C8.11262 6.61715 7.96345 6.73839 7.81709 6.86301C7.51283 7.12594 7.59635 7.28728 8.03782 7.13789C8.51441 6.97264 8.98874 6.79386 9.4622 6.61541C9.75921 6.50346 10.0559 6.39164 10.3526 6.28337C10.5793 6.21764 10.7523 6.19374 10.7523 6.25349C10.7523 6.30727 10.6628 6.46862 10.3347 6.61203C9.37416 7.03033 8.45543 7.59204 7.56056 8.29119C6.94608 8.76924 6.65376 9.18754 6.54041 9.62376C6.483 9.83938 6.39299 10.0483 6.30305 10.257C6.16867 10.5689 6.03447 10.8804 6.00945 11.2133C5.94382 12.0678 6.23615 12.3128 6.37336 12.2351ZM13.1293 9.61826C14.6553 9.65395 16.1394 9.68866 17.4757 9.50425C17.8456 9.45046 17.8456 9.81498 17.5533 9.83291C14.6957 10.1496 11.8022 10.2034 8.93269 10.1138C9.06991 9.92852 9.24292 9.79108 9.44575 9.81498C9.88126 9.86876 9.95881 9.87474 10.0065 9.83291C10.4003 9.50425 10.8179 9.20546 11.2355 8.90668C11.447 8.75536 11.6633 8.61601 11.8798 8.4765C12.0053 8.39565 12.1309 8.31475 12.2556 8.23143C12.4525 8.12387 12.6315 8.1896 12.7389 8.36887C12.8761 8.59595 13.0193 8.66168 13.1028 8.23143C13.104 8.22545 13.1052 8.21959 13.1064 8.21388C13.1506 7.99702 13.1553 7.97434 13.3355 8.19558C13.5562 8.46448 13.6994 8.74534 13.8187 9.04412C13.944 9.35485 13.9499 9.52217 13.6099 9.40864C13.4607 9.35485 13.3355 9.32498 13.1267 9.34888C12.8642 9.37876 12.6971 9.60583 13.1088 9.61778L13.1293 9.61826ZM8.22678 10.7212C8.38109 10.6007 8.42042 10.5699 8.79548 10.299C11.9514 10.4006 14.8866 10.3169 17.5831 10.0062L17.7681 11.0041C17.9053 11.7272 17.8098 12.5219 17.6666 13.2809C17.6619 13.3084 17.6582 13.3324 17.6549 13.354C17.6374 13.4681 17.6307 13.5118 17.5354 13.6274C17.2935 13.9286 16.9315 14.1556 16.5526 14.3931C16.2773 14.5657 15.9932 14.7438 15.7397 14.96C15.6157 15.0679 15.5952 15.2633 15.5748 15.4584C15.5578 15.6199 15.5409 15.7812 15.4653 15.8922C15.3729 16.0239 15.253 16.0666 15.1598 16.0997C15.0965 16.1222 15.0455 16.1404 15.0238 16.179C14.9279 16.3591 14.8241 16.6676 14.7337 16.9362C14.689 17.0688 14.6476 17.1917 14.6121 17.2845L14.4153 16.6332L14.0335 17.0873L13.9261 16.6451L13.592 17.1172L13.3176 16.7228L13.0312 17.1351L12.7866 16.7706L12.6076 17.183L12.2437 16.7587L12.0946 17.2009L11.7784 16.7766L11.504 17.1232L11.2474 16.7886L11.0028 17.171L10.7165 16.7169C10.6658 16.8095 10.6151 16.9036 10.5643 16.9977C10.5136 17.0918 10.4629 17.1859 10.4122 17.2786C10.3812 17.1926 10.3529 17.1044 10.3246 17.0158C10.2603 16.8151 10.1954 16.6125 10.096 16.43C10.0746 16.3919 10.0239 16.3747 9.96114 16.3534C9.86639 16.3212 9.74428 16.2798 9.65456 16.1432C9.57903 16.0297 9.56204 15.8674 9.54515 15.7059C9.52467 15.5102 9.50433 15.3158 9.38013 15.211C9.12489 14.9926 8.83884 14.8134 8.56212 14.64C8.21792 14.4244 7.88815 14.2178 7.65004 13.9561C7.49493 13.7888 7.48897 13.7649 7.45317 13.5438C7.33982 12.8506 7.32193 12.1216 7.46511 11.4643C7.49493 11.3208 7.54863 11.2432 7.65004 11.1655C7.97565 10.9173 8.12582 10.8 8.22678 10.7212ZM16.6107 15.4321C16.5868 15.1273 16.5212 14.8764 16.4556 14.6553C16.2408 14.7927 16.032 14.9301 15.859 15.0975L15.8411 15.1154C15.7783 15.1836 15.7614 15.3438 15.7501 15.4507C15.7486 15.4656 15.7471 15.4794 15.7456 15.4918C15.7277 15.6651 15.7039 15.8564 15.6084 15.9998C15.5368 16.1073 15.4414 16.179 15.3221 16.2328C15.3042 16.2418 15.2743 16.2522 15.2445 16.2627C15.2147 16.2732 15.1849 16.2836 15.167 16.2926L14.9343 18.2705L14.5227 17.3921L14.2781 18.0016L14.1826 17.8044L14.0872 17.6072L13.8187 17.9658L13.592 17.6192L13.3534 17.9837L13.0491 17.5236L12.8284 17.9478L12.5718 17.5415L12.3272 17.9956L12.1125 17.5654L11.8321 17.9658L11.5576 17.673L11.3071 18.0195L11.1042 17.661L10.8537 17.9897L10.5852 17.4578L10.1616 18.3303L10.2571 17.3383L9.95881 16.5256C9.94092 16.5167 9.91109 16.5062 9.88126 16.4958C9.85143 16.4853 9.8216 16.4748 9.8037 16.4659C9.68439 16.4181 9.58893 16.3404 9.51734 16.2328C9.41734 16.0855 9.39854 15.9033 9.38088 15.7322L9.38013 15.7249C9.37416 15.6233 9.35627 15.4022 9.27274 15.3305C9.09974 15.1811 8.90883 15.0556 8.71792 14.9301C8.6344 15.1632 8.53895 15.4321 8.50316 15.7727C8.47352 16.0398 8.52631 16.2362 8.56795 16.3911L8.56878 16.3942C8.57308 16.4106 8.57705 16.4258 8.58074 16.4399C8.62829 16.6223 8.63194 16.6363 8.75372 16.8304L8.75374 16.8304C8.9327 17.1113 9.11167 17.3921 9.27871 17.6789C9.42786 17.9299 9.50541 18.2108 9.38013 18.4797C9.23098 18.8024 9.16536 19.0892 9.38013 19.2983C9.40694 19.3252 9.43443 19.3502 9.46109 19.3745C9.57089 19.4744 9.66663 19.5616 9.64262 19.7107C9.58297 20.0393 9.79774 20.0214 10.1438 19.9736C11.6233 19.7704 13.3474 19.633 14.8269 19.8541C15.1729 19.9079 15.3877 19.9198 15.34 19.5792C15.3155 19.4223 15.4195 19.3258 15.5367 19.217C15.5624 19.1931 15.5887 19.1687 15.6144 19.143C15.8411 18.9219 15.7874 18.6171 15.6442 18.2825C15.5249 18.0016 15.6144 17.7088 15.7695 17.4399C15.8951 17.2327 16.0229 17.0279 16.1503 16.8239C16.2286 16.6983 16.3067 16.5731 16.384 16.448C16.4593 16.33 16.4678 16.2977 16.4915 16.2071C16.4978 16.1829 16.5052 16.1545 16.5152 16.1193C16.5196 16.1033 16.5242 16.087 16.5289 16.0703C16.5753 15.9057 16.6324 15.7034 16.6107 15.4321ZM11.9812 15.1273C12.1423 15.0975 12.2497 15.1273 12.3929 15.1931C12.4048 15.4261 12.709 15.444 12.6673 15.1871C12.7985 15.1214 12.9059 15.0975 13.073 15.1273C13.2281 15.1572 13.2579 15.0556 13.1744 14.8764C13.0431 14.5835 12.894 14.2788 12.715 13.974C12.5897 13.7589 12.4704 13.741 12.3392 13.974C12.1662 14.2788 12.0111 14.5835 11.8798 14.8764C11.8022 15.0556 11.8321 15.1512 11.9812 15.1273ZM13.598 13.8665C15.6263 13.4243 16.9388 12.6534 16.736 11.1774C14.5525 11.6435 13.8903 12.6893 13.598 13.8665ZM11.3966 13.8904C11.1221 12.7789 10.5017 11.7989 8.4435 11.3567C8.25259 12.743 9.48751 13.4721 11.3966 13.8904ZM14.5823 7.16777V5.67385H16.6167V7.16777C16.6167 8.56607 14.5823 8.57802 14.5823 7.16777ZM14.7553 7.16777V5.84715H16.4436V7.16777C16.4436 7.65777 16.1334 8.02228 15.6383 8.04619C15.5249 8.05216 15.4116 8.03424 15.3042 7.99838C14.9343 7.87289 14.7553 7.55021 14.7553 7.16777Z" fill="currentColor" />
</svg>