<svg width="16" height="16" viewBox="0 0 16 16" fill="none" xmlns="http://www.w3.org/2000/svg">
<path fill-rule="evenodd" clip-rule="evenodd" d="M5.11325 1.33279H10.8933C13.1533 1.33279 14.6666 2.91946 14.6666 5.27946V10.7268C14.6666 13.0801 13.1533 14.6661 10.8933 14.6661H5.11325C2.85325 14.6661 1.33325 13.0801 1.33325 10.7268V5.27946C1.33325 2.91946 2.85325 1.33279 5.11325 1.33279ZM7.99325 6.04013C7.67992 6.04013 7.41992 5.77946 7.41992 5.46013C7.41992 5.13346 7.67992 4.87346 8.00659 4.87346C8.32659 4.87346 8.58659 5.13346 8.58659 5.46013C8.58659 5.77946 8.32659 6.04013 7.99325 6.04013ZM8.57992 10.5201C8.57992 10.8401 8.31992 11.1001 7.99325 11.1001C7.67325 11.1001 7.41325 10.8401 7.41325 10.5201V7.57346C7.41325 7.25279 7.67325 6.98679 7.99325 6.98679C8.31992 6.98679 8.57992 7.25279 8.57992 7.57346V10.5201Z" fill="currentColor"/>
</svg>
