<svg width="24" height="24" viewBox="0 0 24 24" fill="none" xmlns="http://www.w3.org/2000/svg">
<path d="M0.501544 15.4517C1.97775 20.3969 6.54421 24 11.9487 24C18.5477 24 23.8974 18.6273 23.8974 12C23.8974 5.3726 18.5477 0 11.9487 0C5.61631 0 0.434877 4.94719 0.0256462 11.2027C0.798887 12.5068 1.10062 13.3133 0.501656 15.4517H0.501544Z" fill="currentColor"/>
<path d="M11.3333 8.99456C11.3333 9.01474 11.3333 9.03493 11.3344 9.05389L8.41045 13.3195C7.93681 13.2979 7.46153 13.3813 7.01086 13.5677C6.8122 13.6491 6.62604 13.749 6.45138 13.8644L0.0309664 11.21C0.0310167 11.21 -0.117598 13.6646 0.50153 15.4939L5.0404 17.3748C5.2683 18.3976 5.96697 19.2948 6.99774 19.7264C8.6842 20.434 10.6287 19.6275 11.3302 17.9331C11.5128 17.4901 11.5979 17.0256 11.5856 16.5621L15.7692 13.5595C15.8031 13.5605 15.8379 13.5616 15.8718 13.5616C18.3754 13.5616 20.4102 11.5118 20.4102 8.99456C20.4102 6.47713 18.3754 4.4292 15.8718 4.4292C13.3692 4.4292 11.3333 6.47713 11.3333 8.99456ZM10.6318 17.6385C10.0888 18.9477 8.59076 19.5688 7.28861 19.0239C6.68789 18.7725 6.23435 18.3121 5.97271 17.7631L7.45015 18.378C8.41045 18.7798 9.5122 18.3224 9.91138 17.3583C10.3118 16.3931 9.85753 15.2848 8.89774 14.8831L7.37045 14.2476C7.95979 14.023 8.62974 14.0148 9.25568 14.2764C9.88676 14.5401 10.3764 15.0366 10.6359 15.6711C10.8954 16.3056 10.8944 17.006 10.6318 17.6385V17.6385ZM15.8718 12.0371C14.2051 12.0371 12.8482 10.6723 12.8482 8.99456C12.8482 7.31816 14.2051 5.95294 15.8718 5.95294C17.5395 5.95294 18.8964 7.31816 18.8964 8.99456C18.8964 10.6723 17.5395 12.0371 15.8718 12.0371ZM13.6061 8.98992C13.6061 7.72781 14.6236 6.70415 15.8769 6.70415C17.1313 6.70415 18.1487 7.72781 18.1487 8.98992C18.1487 10.2521 17.1313 11.2749 15.8769 11.2749C14.6236 11.2749 13.6061 10.2521 13.6061 8.98992V8.98992Z" fill="#000000"/>
</svg>
